<?xml version="1.0" encoding="UTF-8"?>
<svg width="691px" height="65px" viewBox="0 0 691 65" version="1.1" xmlns="http://www.w3.org/2000/svg" xmlns:xlink="http://www.w3.org/1999/xlink">
    <title>Group</title>
    <g id="3-Crowns" stroke="none" stroke-width="1" fill="none" fill-rule="evenodd">
        <g id="2.Logo-Final" transform="translate(-1099.000000, -404.000000)" fill-rule="nonzero">
            <g id="Group" transform="translate(1099.000000, 404.000000)">
                <path d="M683.506036,63.9243572 C685.499479,63.9243572 687.204397,63.2254561 688.62079,61.8276539 C690.037184,60.4298517 690.74538,58.7287528 690.74538,56.7243572 C690.74538,54.7199616 690.037184,53.0188627 688.62079,51.6210605 C687.204397,50.2232583 685.499479,49.5243572 683.506036,49.5243572 C681.565052,49.5243572 679.886364,50.2232583 678.469971,51.6210605 C677.053577,53.0188627 676.34538,54.7199616 676.34538,56.7243572 C676.34538,58.7287528 677.053577,60.4430386 678.469971,61.8672144 C679.886364,63.238643 681.565052,63.9243572 683.506036,63.9243572 Z" id="Path" fill="#434EFF"></path>
                <path d="M50.1412954,3.10387444 C52.8476287,0.397541097 57.235462,0.397541097 59.9417954,3.10387444 C62.5729528,5.73503185 62.6460405,9.95557002 60.1610585,12.6750264 L59.9417954,12.9043744 L11.83025,61.0159198 C9.12391665,63.7222532 4.73608335,63.7222532 2.02975001,61.0159198 C-0.601407409,58.3847624 -0.674495115,54.1642242 1.81048689,51.4447679 L2.02975001,51.2154198 L50.1412954,3.10387444 Z" id="Path-6" fill="#434EFF"></path>
                <path d="M81.6412954,2.95069283 C84.3476287,0.244359484 88.735462,0.244359484 91.4417954,2.95069283 C94.0729528,5.58185024 94.1460405,9.80238841 91.6610585,12.5218448 L91.4417954,12.7511928 L43.33025,60.8627382 C40.6239167,63.5690715 36.2360833,63.5690715 33.52975,60.8627382 C30.8985926,58.2315808 30.8255049,54.0110426 33.3104869,51.2915863 L33.52975,51.0622382 L81.6412954,2.95069283 Z" id="Path-6" fill="#434EFF"></path>
                <path d="M113.141295,2.95069283 C115.847629,0.244359484 120.235462,0.244359484 122.941795,2.95069283 C125.572953,5.58185024 125.646041,9.80238841 123.161059,12.5218448 L122.941795,12.7511928 L74.83025,60.8627382 C72.1239167,63.5690715 67.7360833,63.5690715 65.02975,60.8627382 C62.3985926,58.2315808 62.3255049,54.0110426 64.8104869,51.2915863 L65.02975,51.0622382 L113.141295,2.95069283 Z" id="Path-6" fill="#434EFF"></path>
                <path d="M172.436226,62.9556698 L172.436226,12.6954804 L191.968881,12.6954804 L191.968881,1.30433018 L140.782862,1.30433018 L140.782862,12.6954804 L160.315516,12.6954804 L160.315516,62.9556698 L172.436226,62.9556698 Z M209.574369,62.9556698 L209.574369,37.8255751 C209.690635,35.3908254 210.460896,33.3908525 211.885152,31.8256563 C213.309408,30.2604601 215.21326,29.477862 217.596709,29.477862 C220.270823,29.477862 222.261875,30.2604601 223.569865,31.8256563 C224.877855,33.3908525 225.53185,35.4487957 225.53185,37.9994858 L225.53185,37.9994858 L225.53185,62.9556698 L237.129364,62.9556698 L237.129364,35.9995129 C237.129364,31.0140731 235.777774,26.9416644 233.074594,23.7822869 C230.371414,20.6229093 226.403844,19.0432206 221.171883,19.0432206 C216.056187,19.0432206 212.19035,20.6084168 209.574369,23.7388092 L209.574369,23.7388092 L209.574369,-8.08597633e-12 L197.976855,-8.08597633e-12 L197.976855,62.9556698 L209.574369,62.9556698 Z M254.878823,62.9556698 L254.878823,43.3907172 C254.878823,39.1009202 255.896149,36.0140054 257.9308,34.1299729 C259.965452,32.2459405 262.639565,31.3039242 265.95314,31.3039242 C267.115798,31.3039242 268.278457,31.4198647 269.441115,31.6517456 L269.441115,31.6517456 L269.441115,19.9997294 C268.278457,19.8837889 267.377397,19.8258187 266.737935,19.8258187 C260.692113,19.8258187 256.62281,22.0576725 254.530025,26.5213802 L254.530025,26.5213802 L254.530025,20.1736401 L243.281309,20.1736401 L243.281309,62.9556698 L254.878823,62.9556698 Z M294.284149,64.26 C299.341711,64.26 303.57088,62.9846549 306.971654,60.4339648 C310.372429,57.8832747 312.654145,54.6369418 313.816803,50.6949662 L313.816803,50.6949662 L304.137675,47.8254398 C302.568087,52.173207 299.312645,54.3470907 294.371348,54.3470907 C291.464703,54.3470907 288.964988,53.419567 286.872204,51.5645196 C284.779419,49.7094723 283.674894,47.3906631 283.558628,44.608092 L283.558628,44.608092 L314.2528,44.608092 L314.339999,43.9994046 C314.339999,43.6515832 314.354533,43.1878214 314.383599,42.6081191 C314.412666,42.0284168 314.427199,41.5066847 314.427199,41.0429229 C314.427199,34.1444655 312.552413,28.724249 308.802841,24.7822733 C305.053269,20.8402977 299.864907,18.8693099 293.237756,18.8693099 C287.540732,18.8693099 282.599435,20.9707307 278.413867,25.1735724 C274.228298,29.3764141 272.135513,34.782138 272.135513,41.3907442 C272.135513,48.3471719 274.286431,53.8978214 278.588265,58.0426928 C282.8901,62.1875643 288.122061,64.26 294.284149,64.26 Z M303.004084,36.6951556 L283.820226,36.6951556 C283.936492,34.5502571 284.866619,32.6082544 286.610606,30.8691475 C288.354593,29.1300406 290.621776,28.2604871 293.412155,28.2604871 C296.493199,28.2604871 298.833048,29.0720704 300.431703,30.6952368 C302.030358,32.3184032 302.887818,34.3183762 303.004084,36.6951556 L303.004084,36.6951556 Z M341.925422,64.26 C346.982985,64.26 351.212153,62.9846549 354.612928,60.4339648 C358.013703,57.8832747 360.295419,54.6369418 361.458077,50.6949662 L361.458077,50.6949662 L351.778949,47.8254398 C350.209361,52.173207 346.953918,54.3470907 342.012622,54.3470907 C339.105977,54.3470907 336.606262,53.419567 334.513478,51.5645196 C332.420693,49.7094723 331.316168,47.3906631 331.199902,44.608092 L331.199902,44.608092 L361.894074,44.608092 L361.981273,43.9994046 C361.981273,43.6515832 361.995807,43.1878214 362.024873,42.6081191 C362.053939,42.0284168 362.068473,41.5066847 362.068473,41.0429229 C362.068473,34.1444655 360.193687,28.724249 356.444115,24.7822733 C352.694542,20.8402977 347.506181,18.8693099 340.87903,18.8693099 C335.182006,18.8693099 330.240709,20.9707307 326.05514,25.1735724 C321.869572,29.3764141 319.776787,34.782138 319.776787,41.3907442 C319.776787,48.3471719 321.927704,53.8978214 326.229539,58.0426928 C330.531374,62.1875643 335.763335,64.26 341.925422,64.26 Z M349.385358,36.6951556 L330.2015,36.6951556 C330.317766,34.5502571 331.247892,32.6082544 332.99188,30.8691475 C334.735867,29.1300406 337.00305,28.2604871 339.793429,28.2604871 C342.874473,28.2604871 345.214322,29.0720704 346.812977,30.6952368 C348.411632,32.3184032 349.269092,34.3183762 349.385358,36.6951556 L349.385358,36.6951556 Z M409.845695,64.26 C413.973131,64.26 417.766303,63.6223275 421.22521,62.3469824 C424.684118,61.0716373 427.547163,59.3905007 429.814346,57.3035724 C432.081529,55.2166441 433.927249,52.9847903 435.351505,50.6080108 C436.775761,48.2312314 437.80762,45.7964817 438.447082,43.3037618 L438.447082,43.3037618 L427.198366,39.9125034 C426.210106,43.332747 424.277187,46.2892287 421.399609,48.7819486 C418.52203,51.2746685 414.670726,52.5210284 409.845695,52.5210284 C404.555601,52.5210284 400.035768,50.6949662 396.286196,47.0428417 C392.536623,43.3907172 390.661837,38.4342625 390.661837,32.1734777 C390.661837,25.6228417 392.56569,20.5504465 396.373395,16.9562923 C400.1811,13.362138 404.613734,11.5650609 409.671296,11.5650609 C414.55446,11.5650609 418.391231,12.7679432 421.18161,15.1737077 C423.97199,17.5794723 425.803176,20.5214614 426.67517,23.9996752 L426.67517,23.9996752 L438.011085,20.4345061 C436.615896,14.8113938 433.520319,9.99986468 428.724354,5.99991881 C423.92839,1.99997294 417.577371,-7.86570808e-12 409.671296,-7.86570808e-12 C401.067627,-7.86570808e-12 393.670215,2.98546685 387.479061,8.95640054 C381.287907,14.9273342 378.19233,22.6663599 378.19233,32.1734777 C378.19233,41.7385656 381.244307,49.4775913 387.348262,55.3905548 C393.452217,61.3035183 400.951361,64.26 409.845695,64.26 Z M456.575766,62.9556698 L456.575766,43.3907172 C456.575766,39.1009202 457.593092,36.0140054 459.627743,34.1299729 C461.662395,32.2459405 464.336508,31.3039242 467.650084,31.3039242 C468.812742,31.3039242 469.9754,31.4198647 471.138058,31.6517456 L471.138058,31.6517456 L471.138058,19.9997294 C469.9754,19.8837889 469.07434,19.8258187 468.434878,19.8258187 C462.389056,19.8258187 458.319753,22.0576725 456.226969,26.5213802 L456.226969,26.5213802 L456.226969,20.1736401 L444.978252,20.1736401 L444.978252,62.9556698 L456.575766,62.9556698 Z M496.329889,64.26 C502.782641,64.26 508.145401,62.1151015 512.41817,57.8253045 C516.690938,53.5355074 518.827322,48.1152909 518.827322,41.5646549 C518.827322,35.0140189 516.690938,29.5938024 512.41817,25.3040054 C508.145401,21.0142084 502.782641,18.8693099 496.329889,18.8693099 C489.877137,18.8693099 484.499844,21.0142084 480.198009,25.3040054 C475.954307,29.5938024 473.832457,35.0140189 473.832457,41.5646549 C473.832457,48.1152909 475.968841,53.5355074 480.241609,57.8253045 C484.514377,62.1151015 489.877137,64.26 496.329889,64.26 Z M496.329889,53.7384032 C493.306978,53.7384032 490.720064,52.665954 488.569147,50.5210555 C486.476363,48.376157 485.42997,45.3906901 485.42997,41.5646549 C485.42997,37.7386198 486.490896,34.7531529 488.612747,32.6082544 C490.734598,30.4633559 493.306978,29.3909066 496.329889,29.3909066 C499.3528,29.3909066 501.925181,30.4633559 504.047032,32.6082544 C506.168883,34.7531529 507.229808,37.7386198 507.229808,41.5646549 C507.229808,45.3906901 506.168883,48.376157 504.047032,50.5210555 C501.925181,52.665954 499.3528,53.7384032 496.329889,53.7384032 Z M544.067144,62.9556698 L553.92067,33.7386739 L563.948596,62.9556698 L575.54611,62.9556698 L588.97481,20.1736401 L577.464495,20.1736401 L569.529354,47.7384844 L560.286223,20.1736401 L548.078314,20.1736401 L538.747983,47.6515291 L530.812842,20.1736401 L518.604933,20.1736401 L532.295231,62.9556698 L544.067144,62.9556698 Z M605.969902,62.9556698 L605.969902,38.3473072 C605.969902,35.7966171 606.696563,33.6807037 608.149886,31.999567 C609.603209,30.3184303 611.550661,29.477862 613.992243,29.477862 C616.666356,29.477862 618.657408,30.2604601 619.965398,31.8256563 C621.273388,33.3908525 621.927384,35.4487957 621.927384,37.9994858 L621.927384,37.9994858 L621.927384,62.9556698 L633.524897,62.9556698 L633.524897,35.9995129 C633.524897,31.0140731 632.202374,26.9416644 629.557327,23.7822869 C626.91228,20.6229093 623.060975,19.0432206 618.003413,19.0432206 C615.503698,19.0432206 613.120249,19.5939378 610.853066,20.6953721 C608.585883,21.7968065 606.841896,23.3909878 605.621105,25.4779161 L605.621105,25.4779161 L605.621105,20.1736401 L594.372388,20.1736401 L594.372388,62.9556698 L605.969902,62.9556698 Z M656.410337,64.26 C661.700431,64.26 665.7988,62.8687145 668.705445,60.0861434 C671.61209,57.3035724 673.065413,53.9992693 673.065413,50.1732341 C673.065413,46.9269012 671.975421,44.1443302 669.795437,41.825521 C667.615453,39.5067118 664.461743,37.9125304 660.334307,37.042977 L660.334307,37.042977 L654.230353,35.7386468 C651.614372,35.274885 650.306382,33.9995399 650.306382,31.9126116 C650.306382,30.6952368 650.844111,29.6807578 651.91957,28.8691746 C652.995029,28.0575913 654.288486,27.6517997 655.799941,27.6517997 C658.008991,27.6517997 659.680312,28.231502 660.813904,29.3909066 C661.947495,30.5503112 662.630557,31.8836265 662.863089,33.3908525 L662.863089,33.3908525 L672.542217,31.2169689 C672.367818,29.9416238 671.960888,28.6372936 671.321426,27.3039783 C670.681964,25.9706631 669.751837,24.6518403 668.531046,23.3475101 C667.310256,22.04318 665.595335,20.9707307 663.386285,20.1301624 C661.177234,19.289594 658.619387,18.8693099 655.712742,18.8693099 C651.120243,18.8693099 647.298004,20.2316103 644.246027,22.9562111 C641.19405,25.6808119 639.668061,28.985115 639.668061,32.8691204 C639.668061,35.9995129 640.670854,38.6951286 642.676439,40.9559675 C644.682024,43.2168065 647.690401,44.7820027 651.701572,45.6515562 L651.701572,45.6515562 L657.369529,46.9558863 C660.450573,47.5935589 661.991095,48.9848444 661.991095,51.1297429 C661.991095,52.3471177 661.496965,53.3615968 660.508706,54.17318 C659.520447,54.9847632 658.125257,55.3905548 656.323137,55.3905548 C653.939688,55.3905548 652.064902,54.7673748 650.698779,53.5210149 C649.332656,52.2746549 648.591461,50.7239513 648.475196,48.8689039 L648.475196,48.8689039 L638.534469,51.0427876 C638.708868,52.3761028 639.130332,53.7528958 639.79886,55.1731664 C640.467388,56.5934371 641.455648,58.0137077 642.763638,59.4339783 C644.071628,60.854249 645.917348,62.0136536 648.300797,62.9121922 C650.684246,63.8107307 653.387426,64.26 656.410337,64.26 Z" id="ThreeCrowns." fill="#2A3A46"></path>
            </g>
        </g>
    </g>
</svg>