<?xml version="1.0" encoding="UTF-8"?>
<svg width="768px" height="72px" viewBox="0 0 768 72" version="1.1" xmlns="http://www.w3.org/2000/svg" xmlns:xlink="http://www.w3.org/1999/xlink">
    <title>LOGO</title>
    <g id="3-Crowns" stroke="none" stroke-width="1" fill="none" fill-rule="evenodd">
        <g id="Logo-wip" transform="translate(-576.000000, -383.000000)" fill-rule="nonzero">
            <g id="LOGO" transform="translate(576.000000, 383.000000)">
                <path d="M759.451151,71.0270636 C761.666087,71.0270636 763.560441,70.2505068 765.134211,68.6973933 C766.707982,67.1442797 767.494867,65.2541698 767.494867,63.0270636 C767.494867,60.7999574 766.707982,58.9098475 765.134211,57.3567339 C763.560441,55.8036204 761.666087,55.0270636 759.451151,55.0270636 C757.294503,55.0270636 755.429293,55.8036204 753.855523,57.3567339 C752.281752,58.9098475 751.494867,60.7999574 751.494867,63.0270636 C751.494867,65.2541698 752.281752,67.1589317 753.855523,68.7413493 C755.429293,70.2651588 757.294503,71.0270636 759.451151,71.0270636 Z" id="Path" fill="#434EFF"></path>
                <path d="M55.7125504,3.44874938 C58.7195875,0.44171233 63.5949578,0.44171233 66.6019949,3.44874938 C69.5255031,6.37225762 69.6067117,11.0617445 66.8456206,14.0833626 L66.6019949,14.3381938 L13.1447222,67.7954665 C10.1376852,70.8025035 5.26231483,70.8025035 2.25527778,67.7954665 C-0.668230455,64.8719582 -0.749439017,60.1824714 2.0116521,57.1608532 L2.25527778,56.906022 L55.7125504,3.44874938 Z" id="Path-6" fill="#434EFF"></path>
                <path d="M90.7125504,3.27854758 C93.7195875,0.271510538 98.5949578,0.271510538 101.601995,3.27854758 C104.525503,6.20205582 104.606712,10.8915427 101.845621,13.9131608 L101.601995,14.167992 L48.1447222,67.6252647 C45.1376852,70.6323017 40.2623148,70.6323017 37.2552778,67.6252647 C34.3317695,64.7017564 34.250561,60.0122696 37.0116521,56.9906514 L37.2552778,56.7358202 L90.7125504,3.27854758 Z" id="Path-6" fill="#434EFF"></path>
                <path d="M125.71255,3.27854758 C128.719587,0.271510538 133.594958,0.271510538 136.601995,3.27854758 C139.525503,6.20205582 139.606712,10.8915427 136.845621,13.9131608 L136.601995,14.167992 L83.1447222,67.6252647 C80.1376852,70.6323017 75.2623148,70.6323017 72.2552778,67.6252647 C69.3317695,64.7017564 69.250561,60.0122696 72.0116521,56.9906514 L72.2552778,56.7358202 L125.71255,3.27854758 Z" id="Path-6" fill="#434EFF"></path>
                <path d="M191.595807,69.9507442 L191.595807,14.1060893 L213.298757,14.1060893 L213.298757,1.44925575 L156.425402,1.44925575 L156.425402,14.1060893 L178.128352,14.1060893 L178.128352,69.9507442 L191.595807,69.9507442 Z M232.86041,69.9507442 L232.86041,42.0284168 C232.989594,39.3231394 233.84544,37.1009472 235.427946,35.3618403 C237.010453,33.6227334 239.125845,32.75318 241.774122,32.75318 C244.745359,32.75318 246.957639,33.6227334 248.410961,35.3618403 C249.864284,37.1009472 250.590945,39.3875507 250.590945,42.2216509 L250.590945,42.2216509 L250.590945,69.9507442 L263.477071,69.9507442 L263.477071,39.9994587 C263.477071,34.4600812 261.975305,29.9351827 258.971771,26.4247632 C255.968238,22.9143437 251.559827,21.159134 245.746536,21.159134 C240.062431,21.159134 235.767055,22.8982409 232.86041,26.3764547 L232.86041,26.3764547 L232.86041,-8.7254648e-12 L219.974284,-8.7254648e-12 L219.974284,69.9507442 L232.86041,69.9507442 Z M283.198692,69.9507442 L283.198692,48.211908 C283.198692,43.4454668 284.329054,40.0155616 286.589778,37.9221922 C288.850502,35.8288227 291.821739,34.782138 295.503489,34.782138 C296.795332,34.782138 298.087174,34.9109608 299.379016,35.1686062 L299.379016,35.1686062 L299.379016,22.2219215 C298.087174,22.0930988 297.085996,22.0286874 296.375483,22.0286874 C289.657903,22.0286874 285.136455,24.508525 282.811139,29.4682003 L282.811139,29.4682003 L282.811139,22.4151556 L270.312566,22.4151556 L270.312566,69.9507442 L283.198692,69.9507442 Z M326.982387,71.4 C332.601901,71.4 337.300977,69.9829499 341.079616,67.1488498 C344.858254,64.3147497 347.393495,60.7077131 348.685337,56.3277402 L348.685337,56.3277402 L337.93075,53.1393775 C336.186763,57.97023 332.569605,60.3856563 327.079275,60.3856563 C323.84967,60.3856563 321.072209,59.3550744 318.746893,57.2939107 C316.421577,55.232747 315.194327,52.6562923 315.065143,49.5645467 L315.065143,49.5645467 L349.169778,49.5645467 L349.266666,48.8882273 C349.266666,48.5017591 349.282814,47.9864682 349.31511,47.3423545 C349.347406,46.6982409 349.363554,46.1185386 349.363554,45.6032476 C349.363554,37.938295 347.280459,31.9158322 343.114267,27.5358593 C338.948076,23.1558863 333.18323,20.9658999 325.819729,20.9658999 C319.489702,20.9658999 313.999373,23.3008119 309.348741,27.970636 C304.698109,32.6404601 302.372792,38.64682 302.372792,45.9897158 C302.372792,53.7190798 304.762701,59.8864682 309.542517,64.4918809 C314.322333,69.0972936 320.135623,71.4 326.982387,71.4 Z M336.671204,40.7723951 L315.355807,40.7723951 C315.484991,38.3891746 316.518465,36.2313938 318.456228,34.2990528 C320.393992,32.3667118 322.913084,31.4005413 326.013506,31.4005413 C329.436888,31.4005413 332.03672,32.3023004 333.813003,34.1058187 C335.589286,35.9093369 336.54202,38.1315291 336.671204,40.7723951 L336.671204,40.7723951 Z M379.917136,71.4 C385.53665,71.4 390.235726,69.9829499 394.014365,67.1488498 C397.793003,64.3147497 400.328244,60.7077131 401.620086,56.3277402 L401.620086,56.3277402 L390.865499,53.1393775 C389.121512,57.97023 385.504354,60.3856563 380.014024,60.3856563 C376.784419,60.3856563 374.006958,59.3550744 371.681642,57.2939107 C369.356326,55.232747 368.129076,52.6562923 367.999891,49.5645467 L367.999891,49.5645467 L402.104527,49.5645467 L402.201415,48.8882273 C402.201415,48.5017591 402.217563,47.9864682 402.249859,47.3423545 C402.282155,46.6982409 402.298303,46.1185386 402.298303,45.6032476 C402.298303,37.938295 400.215207,31.9158322 396.049016,27.5358593 C391.882825,23.1558863 386.117979,20.9658999 378.754478,20.9658999 C372.424451,20.9658999 366.934122,23.3008119 362.283489,27.970636 C357.632857,32.6404601 355.307541,38.64682 355.307541,45.9897158 C355.307541,53.7190798 357.697449,59.8864682 362.477266,64.4918809 C367.257082,69.0972936 373.070372,71.4 379.917136,71.4 Z M388.205953,40.7723951 L366.890556,40.7723951 C367.01974,38.3891746 368.053214,36.2313938 369.990977,34.2990528 C371.928741,32.3667118 374.447833,31.4005413 377.548254,31.4005413 C380.971636,31.4005413 383.571469,32.3023004 385.347752,34.1058187 C387.124035,35.9093369 388.076769,38.1315291 388.205953,40.7723951 L388.205953,40.7723951 Z M455.384105,71.4 C459.970145,71.4 464.184781,70.691475 468.028011,69.2744249 C471.871242,67.8573748 475.052404,65.9894452 477.571496,63.670636 C480.090588,61.3518268 482.141388,58.8719892 483.723895,56.2311231 C485.306401,53.5902571 486.452911,50.8849797 487.163425,48.1152909 L487.163425,48.1152909 L474.664851,44.347226 C473.566785,48.1474966 471.419097,51.4324763 468.221788,54.2021651 C465.024478,56.9718539 460.745251,58.3566982 455.384105,58.3566982 C449.506223,58.3566982 444.484186,56.3277402 440.317995,52.2698241 C436.151804,48.211908 434.068708,42.7047361 434.068708,35.7483085 C434.068708,28.4698241 436.1841,22.8338295 440.414883,18.8403248 C444.645667,14.84682 449.570815,12.8500677 455.190329,12.8500677 C460.616066,12.8500677 464.879146,14.1866035 467.979567,16.8596752 C471.079989,19.532747 473.11464,22.8016238 474.083522,26.6663058 L474.083522,26.6663058 L486.678984,22.7050068 C485.128773,16.4571042 481.689243,11.1109608 476.360394,6.66657645 C471.031545,2.22219215 463.974856,-8.47677484e-12 455.190329,-8.47677484e-12 C445.630696,-8.47677484e-12 437.41135,3.31718539 430.53229,9.95155616 C423.65323,16.5859269 420.2137,25.1848444 420.2137,35.7483085 C420.2137,46.376184 423.604786,54.9751015 430.386958,61.5450609 C437.16913,68.1150203 445.501512,71.4 455.384105,71.4 Z M507.306407,69.9507442 L507.306407,48.211908 C507.306407,43.4454668 508.436769,40.0155616 510.697493,37.9221922 C512.958217,35.8288227 515.929454,34.782138 519.611204,34.782138 C520.903046,34.782138 522.194889,34.9109608 523.486731,35.1686062 L523.486731,35.1686062 L523.486731,22.2219215 C522.194889,22.0930988 521.193711,22.0286874 520.483198,22.0286874 C513.765618,22.0286874 509.24417,24.508525 506.918854,29.4682003 L506.918854,29.4682003 L506.918854,22.4151556 L494.42028,22.4151556 L494.42028,69.9507442 L507.306407,69.9507442 Z M551.477655,71.4 C558.647379,71.4 564.606002,69.0167794 569.353522,64.2503383 C574.101042,59.4838972 576.474802,53.4614344 576.474802,46.1829499 C576.474802,38.9044655 574.101042,32.8820027 569.353522,28.1155616 C564.606002,23.3491204 558.647379,20.9658999 551.477655,20.9658999 C544.30793,20.9658999 538.33316,23.3491204 533.553344,28.1155616 C528.838119,32.8820027 526.480507,38.9044655 526.480507,46.1829499 C526.480507,53.4614344 528.854267,59.4838972 533.601788,64.2503383 C538.349308,69.0167794 544.30793,71.4 551.477655,71.4 Z M551.477655,59.7093369 C548.118865,59.7093369 545.244516,58.5177267 542.854608,56.1345061 C540.529292,53.7512855 539.366634,50.4341001 539.366634,46.1829499 C539.366634,41.9317997 540.54544,38.6146143 542.903052,36.2313938 C545.260664,33.8481732 548.118865,32.6565629 551.477655,32.6565629 C554.836445,32.6565629 557.694646,33.8481732 560.052258,36.2313938 C562.40987,38.6146143 563.588676,41.9317997 563.588676,46.1829499 C563.588676,50.4341001 562.40987,53.7512855 560.052258,56.1345061 C557.694646,58.5177267 554.836445,59.7093369 551.477655,59.7093369 Z M604.519049,69.9507442 L615.467412,37.4874154 L626.609551,69.9507442 L639.495677,69.9507442 L654.416455,22.4151556 L641.627217,22.4151556 L632.810394,53.0427605 L622.540248,22.4151556 L608.975904,22.4151556 L598.60887,52.9461434 L589.792047,22.4151556 L576.227703,22.4151556 L591.439146,69.9507442 L604.519049,69.9507442 Z M673.299891,69.9507442 L673.299891,42.6081191 C673.299891,39.7740189 674.107293,37.4230041 675.722096,35.5550744 C677.336898,33.6871448 679.500734,32.75318 682.213603,32.75318 C685.18484,32.75318 687.39712,33.6227334 688.850442,35.3618403 C690.303765,37.1009472 691.030426,39.3875507 691.030426,42.2216509 L691.030426,42.2216509 L691.030426,69.9507442 L703.916553,69.9507442 L703.916553,39.9994587 C703.916553,34.4600812 702.447082,29.9351827 699.508141,26.4247632 C696.5692,22.9143437 692.289972,21.159134 686.670459,21.159134 C683.892998,21.159134 681.244721,21.7710419 678.725629,22.9948579 C676.206536,24.2186739 674.268773,25.9899865 672.912339,28.3087957 L672.912339,28.3087957 L672.912339,22.4151556 L660.413765,22.4151556 L660.413765,69.9507442 L673.299891,69.9507442 Z M729.344818,71.4 C735.222701,71.4 739.776445,69.8541272 743.00605,66.7623816 C746.235656,63.670636 747.850459,59.9991881 747.850459,55.7480379 C747.850459,52.1410014 746.639357,49.0492558 744.217152,46.4728011 C741.794948,43.8963464 738.290826,42.1250338 733.704786,41.1588633 L733.704786,41.1588633 L726.922614,39.7096076 C724.015969,39.1943166 722.562647,37.7772666 722.562647,35.4584574 C722.562647,34.1058187 723.160124,32.9786198 724.355078,32.0768606 C725.550032,31.1751015 726.987206,30.7242219 728.666601,30.7242219 C731.121102,30.7242219 732.978125,31.3683356 734.237671,32.6565629 C735.497217,33.9447903 736.256174,35.4262517 736.514543,37.1009472 L736.514543,37.1009472 L747.26913,34.685521 C747.075353,33.2684709 746.623208,31.8192152 745.912695,30.3377537 C745.202182,28.8562923 744.168708,27.3909337 742.812274,25.9416779 C741.455839,24.4924222 739.550372,23.3008119 737.095872,22.3668471 C734.641372,21.4328823 731.799319,20.9658999 728.569713,20.9658999 C723.466936,20.9658999 719.220005,22.479567 715.828919,25.5069012 C712.437833,28.5342355 710.74229,32.2056834 710.74229,36.5212449 C710.74229,39.9994587 711.856504,42.9945873 714.084932,45.5066306 C716.31336,48.0186739 719.656002,49.7577808 724.112857,50.7239513 L724.112857,50.7239513 L730.410588,52.173207 C733.83397,52.8817321 735.545661,54.4276049 735.545661,56.8108254 C735.545661,58.1634641 734.996628,59.2906631 733.898562,60.1924222 C732.800496,61.0941813 731.250286,61.5450609 729.24793,61.5450609 C726.599654,61.5450609 724.516558,60.8526387 722.998643,59.4677943 C721.480729,58.0829499 720.657179,56.3599459 720.527995,54.2987821 L720.527995,54.2987821 L709.482744,56.7142084 C709.67652,58.1956698 710.144813,59.7254398 710.887622,61.3035183 C711.630432,62.8815968 712.728498,64.4596752 714.18182,66.0377537 C715.635143,67.6158322 717.685942,68.9040595 720.334219,69.9024357 C722.982495,70.9008119 725.986029,71.4 729.344818,71.4 Z" id="ThreeCrowns." fill="#FFFFFF"></path>
            </g>
        </g>
    </g>
</svg>