<?xml version="1.0" encoding="UTF-8"?>
<svg width="139px" height="71px" viewBox="0 0 139 71" version="1.1" xmlns="http://www.w3.org/2000/svg" xmlns:xlink="http://www.w3.org/1999/xlink">
    <title>Mark@1x</title>
    <g id="3-Crowns" stroke="none" stroke-width="1" fill="none" fill-rule="evenodd">
        <g id="Logo-wip" transform="translate(-576.000000, -384.000000)" fill="#434EFF" fill-rule="nonzero">
            <g id="LOGO" transform="translate(576.000000, 383.000000)">
                <g id="Mark" transform="translate(0.000000, 1.023270)">
                    <path d="M55.7125504,2.42547958 C58.7195875,-0.58155747 63.5949578,-0.58155747 66.6019949,2.42547958 C69.5255031,5.34898782 69.6067117,10.0384747 66.8456206,13.0600928 L66.6019949,13.314924 L13.1447222,66.7721967 C10.1376852,69.7792337 5.26231483,69.7792337 2.25527778,66.7721967 C-0.668230455,63.8486884 -0.749439017,59.1592016 2.0116521,56.1375834 L2.25527778,55.8827522 L55.7125504,2.42547958 Z" id="Path-6"></path>
                    <path d="M90.7125504,2.25527778 C93.7195875,-0.751759262 98.5949578,-0.751759262 101.601995,2.25527778 C104.525503,5.17878602 104.606712,9.86827288 101.845621,12.889891 L101.601995,13.1447222 L48.1447222,66.6019949 C45.1376852,69.6090319 40.2623148,69.6090319 37.2552778,66.6019949 C34.3317695,63.6784866 34.250561,58.9889998 37.0116521,55.9673816 L37.2552778,55.7125504 L90.7125504,2.25527778 Z" id="Path-6"></path>
                    <path d="M125.71255,2.25527778 C128.719587,-0.751759262 133.594958,-0.751759262 136.601995,2.25527778 C139.525503,5.17878602 139.606712,9.86827288 136.845621,12.889891 L136.601995,13.1447222 L83.1447222,66.6019949 C80.1376852,69.6090319 75.2623148,69.6090319 72.2552778,66.6019949 C69.3317695,63.6784866 69.250561,58.9889998 72.0116521,55.9673816 L72.2552778,55.7125504 L125.71255,2.25527778 Z" id="Path-6"></path>
                </g>
            </g>
        </g>
    </g>
</svg>